<svg xmlns="http://www.w3.org/2000/svg" viewBox="0 0 512 118"><polygon points="373.1 65.8 431.7 52.7 438 12.7 353.6 0 352.8 0 352.8 6.7 342.6 0 341.3 0 373.1 65.8" fill="#fff"/><path d="M374.6,54.2c.1,4.6,2.6,6.5,7.1,6l2-.4,39.2-9.9a7,7,0,0,0,5.4-5.8c.5-3.1,2.2-30.3,2.2-30.3l7.5-1.1c-1.4,25.6-2.8,50.7-4.2,75.8L426.4,91c.1-2.6,1.2-21.1,1.2-27.6,0-3.7-1.8-5.1-5.4-4l-20.7,5.5L381,70.4c-4.5,1.7-6.9,5-6.9,9.7,0,9.1-.8,18.2-.6,27.4.1,3.1-.2,3.4-3.1,4.2s-3.1,1.3-4.7,1.9-1.8.9-2.6-.2c0-7.5.5-85.2.5-91.9,3.6-.6,7.2-.6,10.7-1.5Z" fill="#80bb0a"/><path d="M99.7,63.7l24.6,19.6a7,7,0,0,1-3.1.4c-4.2,0-8.5-.1-12.7,0a5.3,5.3,0,0,1-4.3-1.6L85.3,65a6.5,6.5,0,0,0-4.9-1.9c-3,.2-6.1.1-9.5.1V83.5H58.2V30.1c.9-.6,1.7-.3,2.6-.3h44.5a26.4,26.4,0,0,1,7.4,1,8.5,8.5,0,0,1,6.4,8.2c.1,5.2.2,10.3,0,15.5s-4.4,8.1-9.1,8.6H100ZM71,54h31c3.4-.1,5.5-2.2,5-5.2a13.7,13.7,0,0,1,0-3.5c.2-4.4-.9-6.1-6.4-6.2-9-.1-18,0-27,0-.8,0-1.7-.3-2.6.4Z" fill="#595b5c"/><path d="M374.3,20c-5.7-4.1-15.5-9.8-21.5-13.3V0l77.7,13.8c-.5,7-1.7,27.2-2.2,30.3a7,7,0,0,1-5.4,5.8c.2-2.5-1.8-2.9-3.5-3.4q-7.5-2.4-15-4.5l-30-8.8" fill="#595b5c"/><path d="M211.2,29.8h7.4a4.2,4.2,0,0,1,2.8,1.2l39.3,30.6a24.3,24.3,0,0,0,5,3.4V30h11.7V83.6h-8.5c-.9,0-1.5-.8-2.1-1.4L236,57.8l-10.9-8.7a3.2,3.2,0,0,0-2.1-.9V83.5H211.2Z" fill="#595b5c"/><path d="M332,49.5V39.9H296.7V73.1h35.1c.4-3.6-.2-7.2.4-10.9,4.4.6,8.5,1.5,12.8,2.5.3,4.2.5,8.3-.5,12.3s-3.5,5.4-7.1,6.1-10,.5-14.9.6H295.4a23.2,23.2,0,0,1-6.4-1.1c-3.1-1-4.6-3.3-5.2-6.2a35.1,35.1,0,0,1-.7-7.2c0-7.8.1-15.6,0-23.5a57.9,57.9,0,0,1,.6-8.3c.5-3.4,2.4-5.5,5.8-6.6s7.8-1,11.7-1h27.6a49.1,49.1,0,0,1,9.4.9c3.5.8,6,3.2,6.5,6.5a52.6,52.6,0,0,1,.3,8.9,1.7,1.7,0,0,1-1.8,2C339.6,48.6,336,49.3,332,49.5Z" fill="#595b5c"/><path d="M203.4,83.7H190.2c-1.4.1-1.8-.9-2.3-1.8l-5.8-10.1H148.9a3.3,3.3,0,0,0-3.6,2.1c-1.3,2.6-2.9,5.1-4.3,7.7a3.5,3.5,0,0,1-3.6,2.1c-3.4-.2-6.9,0-10.6,0,1.4-3.4,3.5-6.3,5.2-9.3,8.3-13.9,16.7-27.8,24.9-41.7,1.2-2.1,2.4-3.2,4.9-3a34.7,34.7,0,0,0,7.2,0,3,3,0,0,1,3.2,1.8c5.7,9.5,11.4,19,17.2,28.4,4.1,6.9,8.3,13.7,12.5,20.6A10.6,10.6,0,0,1,203.4,83.7ZM164.3,39.8c-4.4,7.3-8,14.6-12,21.9h24.3Z" fill="#595b5c"/><path d="M0,29.9H53.8a78.9,78.9,0,0,1-.1,9.7H13.1V53.4H39c.4,3.5.1,6.7.2,10.2h-26c-.5,6.8.2,13.2-.3,19.9H0Z" fill="#595b5c"/><path d="M477.2,50.3c5.9-6.1,11.4-11.7,16.7-17.4,1.9-2.1,3.8-3.2,6.6-3s7.5,0,11.5.5l-5.7,5.7L484.4,57.9a4.5,4.5,0,0,0-1.5,3.8c.1,6.3,0,12.6,0,18.9a7.9,7.9,0,0,1-.2,3H470.2a6.7,6.7,0,0,1-.4-3.4q-.2-9.2,0-18.3a5.1,5.1,0,0,0-1.7-4C460,49.9,452,41.8,444,33.8a21.8,21.8,0,0,1-3.3-3.9H457a3.1,3.1,0,0,1,2.1,1.1c4.9,5.3,9.9,10.4,14.8,15.6A42.7,42.7,0,0,1,477.2,50.3Z" fill="#595b5c"/><path d="M363.6,21.5c0,6.7-.5,84.4-.5,91.9-1.1-1.9-1.1-4.2-1.5-6.3-2.7-12.6-15.4-75.8-19.2-93.5L341.3,0Z" fill="#595b5c"/><path d="M401.5,64.9c6.8-2.1,13.9-3.2,20.7-5.5,3.6-1.1,5.4.3,5.4,4,0,6.5-1.1,25-1.2,27.6C422.5,87.7,406,70.2,401.5,64.9Z" fill="#595b5c"/><path d="M308.6,116.9c-1.7.6-2.5.3-2.7-1.2s-.4-2.5-.5-3.7a3.2,3.2,0,0,0-3.3-3.3,27.1,27.1,0,0,0-5.6.5c-.8.1-.9.9-1,1.5v4c0,1.4-.3,2.5-1.9,2.6-1-2.1-1.2-15.8-.3-20.3h9.3c2.4,0,4.5,1,5.3,3.2s1,4.5-1,6.3a2.3,2.3,0,0,0-.7,1.1C308.6,110.2,307.9,113.6,308.6,116.9Zm-13.4-10.7c2.7,0,5.1.3,7.6.1s2.7-1.5,2.9-3.3a3.1,3.1,0,0,0-2.1-3.6c-2.3-.7-4.7-.3-7.1,0-.7.1-.7,1-1.1,1.6S295.9,104.3,295.2,106.2Z" fill="#80bb0a"/><path d="M185.8,107.2c2,3.8,2.5,6.1,2,9.8-1.4.3-2.1-.2-2.2-1.6a20.5,20.5,0,0,0-.7-4.2,3.6,3.6,0,0,0-2.8-2.5,22.5,22.5,0,0,0-6.7.4,20.7,20.7,0,0,0-.3,5,6.1,6.1,0,0,1-.1,1.9c-.1.7-.4,1.3-1.3,1.3a1.3,1.3,0,0,1-1.3-1.5c0-.8-.1-1.6-.1-2.3,0-4.5,0-9,.1-13.5.1-2.8.2-2.9,3-2.9h6c2.6-.1,5.3.4,6.3,3.1S188.8,105.4,185.8,107.2Zm-10.2-7.7c-1,1.6-.5,3.3-.6,5a1.6,1.6,0,0,0,1.8,2c1.9,0,3.8.3,5.7-.2s3.2-1.8,3.2-3.7a3.4,3.4,0,0,0-3.5-3.3A20.9,20.9,0,0,0,175.6,99.5Z" fill="#80bb0a"/><path d="M211.6,116.8c-.8-1-.4-2.1-.4-3.3-.1-2.9-1.5-4.5-4.4-4.8s-4-.4-5.8.8.3,5.1-.5,7.6c-2.1,0-2.7-.8-2.7-2.6a135.2,135.2,0,0,0,.3-14.2c-.1-2.8.3-3.2,3.1-3.3h6.9c5.9.2,6.8,5.2,4.9,8.6-.8,1.5-1.4,2.5-.2,4.3s.9,3.8.7,5.8S212.6,117.1,211.6,116.8ZM201,106.1a39.6,39.6,0,0,0,7.7,0c1.6-.2,2.4-1.7,2.4-4.1a2.4,2.4,0,0,0-2.5-2.7,27.8,27.8,0,0,0-7.6.2Z" fill="#80bb0a"/><path d="M283.2,115.2c.4.9.5,1.5.1,2.1l-.7.2H271.4c-1.7,0-2.3-.6-2.3-2.2.1-5.3.3-10.6,0-15.9,0-1.7.6-2.5,2.4-2.5h10.3c1.2,0,1.8.5,1.5,1.9a44.7,44.7,0,0,1-8.2.3c-1.3-.1-2.7-.1-3.1,1.3a6.7,6.7,0,0,0,.3,4.8c.4.7,1.1.4,1.8.3l6-.2a5.9,5.9,0,0,1,1.9.5c.5.2.9.5.8,1.1s-.4,1-1.1,1.1h-9.4c-.8,1.8-.3,3.6-.4,5.2s1,1.9,2.4,1.8S280.2,115.2,283.2,115.2Z" fill="#80bb0a"/><path d="M240.1,115.6a1.9,1.9,0,0,1-1,1.6,1.4,1.4,0,0,1-1.8-.4,4.6,4.6,0,0,1-1.7-2.9c-.1-2-1.2-2.6-3.1-2.4h-1.7c-5.1-.2-4.3.2-5.8,3.7a11.7,11.7,0,0,1-.5,1.1c-.4.7-.9,1.3-1.8.9s-.8-1.2-.5-2c.9-3,2.4-5.8,3.4-8.8s2.2-5.1,3.1-7.8a2.1,2.1,0,0,1,1.9-1.5,2,2,0,0,1,2.2,1.4c1.7,4.4,4.1,8.5,5,13.2a5.1,5.1,0,0,0,1.8,2.5A2.2,2.2,0,0,1,240.1,115.6Zm-12.2-6.9c2,1,3.7.8,5.7.4a20.5,20.5,0,0,0-3-8.7A33.6,33.6,0,0,0,227.9,108.7Z" fill="#80bb0a"/><path d="M135.9,100.5a11.2,11.2,0,0,0-6-1.5,5.4,5.4,0,0,0-4.9,3.6c-1.3,3.3-1.6,6.5.2,9.7s3.7,3.4,6.4,3.2a4.8,4.8,0,0,0,4.9-4c.3-1.5,1-2.2,2.6-1.3-.2,2.9-1.1,5.7-3.8,6.8s-7,1.5-10.2-.9c-6-4.6-4.6-16.3,1.9-18.6,4.6-1.6,10.8-.9,11.9,5.1-1.5.5-2.6.5-2.6-1.5A.5.5,0,0,0,135.9,100.5Z" fill="#80bb0a"/><path d="M348.1,117.2c-2.4.6-3.1-.6-3.6-2.2-1.3-3.9-1.3-3.9-5.4-3.9h-1.7c-3,.2-3.2.3-4.1,3.3s-.9,3.2-3.4,2.8a37,37,0,0,1,1.9-5.9c1.7-4,3.2-8.1,4.9-12.1.4-1,.8-2,2.1-2.1s1.7,1,2.2,1.9C343.7,104.9,345.8,111,348.1,117.2Zm-9.5-17.4c-1.1,3.5-2.6,6.1-3,9.3,2.2-.2,4.3.5,6.4-.4A33,33,0,0,0,338.6,99.8Z" fill="#80bb0a"/><path d="M151.6,108.8v5.5c0,.1.1.3.2.7,3,.5,6.2.2,9.3.2,1.3.1,2.3.3,1.7,2.2a104.6,104.6,0,0,1-13.7-.1c-.2-6.8,0-13.2,0-19.5A3.5,3.5,0,0,1,152,97h9.2c1.1,0,2.1.1,1.5,1.9a79.8,79.8,0,0,1-8.5.2c-2.5,0-2.7.2-2.6,2.8v1.1c0,2.8.3,3.1,2.9,2.8s4,.2,6,.1,1.4.1,1.4,1-.8,1-1.6,1.1h-6.9A2.3,2.3,0,0,0,151.6,108.8Z" fill="#80bb0a"/><path d="M247.2,110.9c.6-.4,1.2-.1,1.8,0s0,2.3,1,3.2a3.9,3.9,0,0,0,4.4,1.1c1.6-.6,1.7-1.9,1.6-3.3,0-3.8,0-7.6.1-11.4a5.2,5.2,0,0,1,.5-3.2c1.6-.2,2.2.7,2.2,2.2,0,4.4,0,8.7-.1,13.1s-3.6,6.1-7.2,5.1S246.4,115,247.2,110.9Z" fill="#80bb0a"/><path d="M320,97.2c1.3,2,1.7,15.5.7,19.9-1.5.6-2.1-.3-2.1-1.4.3-5.4-.1-10.9.1-16.3C318.8,98.7,318.7,97.6,320,97.2Z" fill="#80bb0a"/><path d="M318.6,95.7c1.6-4.3,2.2-4.8,4.6-3.4C321.6,93.2,320.9,95.1,318.6,95.7Z" fill="#80bb0a"/><path d="M135.9,100.5a.5.5,0,0,1,.4.6A.5.5,0,0,1,135.9,100.5Z" fill="#595b5c"/></svg>