<svg xmlns="http://www.w3.org/2000/svg" viewBox="0 0 512 150"><path d="M201.6,45.5c19.7,0,37,15.3,37,35.4s-17.3,35.5-37,35.5-37.1-15.3-37.1-35.5S181.8,45.5,201.6,45.5Zm0,55.7c11.3,0,21.2-8.8,21.2-20.3s-9.9-20.2-21.2-20.2-21.3,8.8-21.3,20.2S190.2,101.2,201.6,101.2Z" fill="#635959"/><path d="M264.1,58.1h.3c5.8-10.4,13.3-12.5,24.8-12.6l-5.8,17.7c-12.7,0-18.4,7.5-18.4,19.1V108l-16.7,7.4V53.1L264.1,46Z" fill="#635959"/><path d="M355.7,100a34.5,34.5,0,0,1-28.9,16.4c-19.7,0-37.1-15.3-37.1-35.5s17.4-35.4,37.1-35.4c13.8,0,25.9,8.2,31.8,20.6L312.9,94.5c1.3,2.7,5,6.7,13,6.7s12.4-1.7,18.4-9ZM337.6,63.7c-3.2-3.1-7.2-4.3-11.7-4.3-10.5,0-18.9,8.5-19.9,18.8a23.7,23.7,0,0,0,.3,4.5Z" fill="#635959"/><path d="M367.7,53.1,383.5,46v9.2h.2c5.7-7.6,11.2-9.7,20.5-9.7,13.8,0,23,8.8,23,23V108l-16.7,7.4V72.9c0-7.1-3.3-13-10.7-13-10.6,0-15.4,8-15.4,16.4V108l-16.7,7.4Z" fill="#635959"/><path d="M474.9,45.5c19.8,0,37.1,15.3,37.1,35.4s-17.3,35.5-37.1,35.5-37-15.3-37-35.5S455.2,45.5,474.9,45.5Zm0,55.7c11.3,0,21.3-8.8,21.3-20.3s-10-20.2-21.3-20.2-21.3,8.8-21.3,20.2S463.6,101.2,474.9,101.2Z" fill="#635959"/><path d="M58.1,148.2a9.2,9.2,0,0,1-3.9.9c-7.4,0-12.3-5.5-12.3-12.5s5-12.5,12.1-12.5a8.6,8.6,0,0,1,3.9.9l.8,5.5a7.8,7.8,0,0,0-4.9-1.7c-4.2,0-7.1,3.8-7.1,7.8a7.5,7.5,0,0,0,7.3,7.8,7.7,7.7,0,0,0,4.7-2Z" fill="#635959"/><path d="M87.9,124.7h7.6c4.6,0,8.2,2.2,8.2,7.3a6.3,6.3,0,0,1-4.6,6.3l6.5,9.6-5,1.2-8.1-12.5h0v11.9l-4.6.3Zm4.6,10.8h1.6c2.3,0,4.5-.7,4.5-3.4s-2.1-3-4.4-3H92.5Z" fill="#635959"/><path d="M135.6,148.8V124.7l4.6-.6v24.4Z" fill="#635959"/><path d="M173,142.1c1.1,1.3,2,2.6,4.6,2.6a3,3,0,0,0,3-2.8c0-4.7-10.4-2-10.4-10.5,0-4.5,3.4-7.3,8.2-7.3a8.9,8.9,0,0,1,6.6,3.2l-2.8,3.4a6.5,6.5,0,0,0-4.1-2.2c-1.6,0-3.1.7-3.1,2.9,0,4.1,10.4,1.2,10.4,10.6,0,4.3-3.6,7.1-8.1,7.1a9.5,9.5,0,0,1-7.5-3.7Z" fill="#635959"/><path d="M216.4,124.7h15.9v4.4h-5.9v19.4l-4.6.3V129.1h-6.5Z" fill="#635959"/><path d="M260.5,148.4l12-24.3h.1L285,148.4l-4.9.7-2.8-6.1h-9.2l-2.7,6.1Zm9.4-9.4h5.4l-2.7-6.5Z" fill="#635959"/><path d="M314.7,148.5V124.7l4.6-.6v20H328l-1.2,4.4Z" fill="#635959"/><path d="M358,148.5V124.7h12.9l.7,4.4h-9v4.8h7.3v4.4h-7.3v5.8h10.2l-1.5,4.4Z" fill="#635959"/><path d="M403.4,124.7h7.7c4.6,0,8.2,2.2,8.2,7.3a6.5,6.5,0,0,1-4.6,6.3l6.5,9.6-5,1.2-8.1-12.5H408v11.9l-4.6.3Zm4.6,10.8h1.7c2.2,0,4.4-.7,4.4-3.4s-2.1-3-4.3-3H408Z" fill="#635959"/><path d="M451,148.8V124.7l4.6-.6v24.4Z" fill="#635959"/><path d="M485.4,148.4l12-24.3h.1L510,148.4l-4.9.7-2.9-6.1h-9.1l-2.8,6.1Zm9.5-9.4h5.3l-2.7-6.5Z" fill="#635959"/><path d="M44.3,28l19.5-1.9V36.6C70.1,29.5,75,25.4,84.9,25.4c8.1,0,15.4,3.6,21.3,10.6,7.3-7.1,13.3-10.6,23.2-10.6,12.7,0,26.8,7.4,26.8,26.3v54.8l-20.6,9.1V55.3c.6-10-5.1-12-12-12-8.5,0-13,6.3-13,16.6v46.6L90,115.6V55.3c.6-10-5.1-12-12.1-12s-13,6.3-13,16.6v46.6l-20.6,9.1Z" fill="#635959"/><rect y="0.9" width="3.3" height="83.31" fill="#33bc45"/><rect x="37.3" y="31.3" width="3.3" height="83.31" fill="#33bc45"/><rect x="6.3" y="5.8" width="3.3" height="83.31" fill="#33bc45"/><rect x="12.5" y="11.6" width="3.3" height="83.31" fill="#33bc45"/><rect x="18.7" y="15.2" width="3.3" height="83.31" fill="#33bc45"/><rect x="24.8" y="21.2" width="3.3" height="83.31" fill="#33bc45"/><rect x="31.1" y="27" width="3.3" height="83.31" fill="#33bc45"/></svg>