<svg xmlns="http://www.w3.org/2000/svg" viewBox="0 0 512 358"><g fill="#939393"><path d="M67.4,145V52.5c0-9.2,3.9-13.5,12.9-15.7,19.4-4.8,38.8-10,58.2-15s39.4-10,59.1-15.3l19.3-5.2C224.2-.8,229-.1,229,9.7c.2,48.1.1,96.2.2,144.3,0,3.4-1.3,4.4-4.5,4.3q-8.5-.2-17.1,0c-3.5.1-7.3.5-7.3,5s3.6,5.1,7.1,5.3c5.9.4,11.7.9,17.6,1,3.4,0,4.1,1.5,4.1,4.6V280.8c-.1,7.8-4.7,10.3-12.4,8.2-16.4-4.6-33-8.5-49.5-12.8L93.6,256.9c-5.6-1.5-11.3-2.8-16.9-4.7s-9.2-6.7-9.2-13.2C67.4,207.6,67.5,176.3,67.4,145ZM215.5,45.1V24.5c0-5.8-2-7.5-7.8-6.1L184,24.6,87.5,49.2c-6.3,1.6-8.7,4.9-8.7,11.5V81.8c0,8.9,1.4,10.4,10.3,9.3l61.7-8.3L207.3,75c5.8-.7,8.2-3.2,8.2-9.2Zm-68.1,98.1h59.3c6.9,0,8.8-1.9,8.8-9,.1-12.1.1-24.1.2-36.2,0-4.4-2.4-6.6-7-6.2-12.8,1.2-25.7,2.3-38.5,3.6l-83.7,8.8c-5.8.6-7.7,2.5-7.7,8.3-.1,7.3-.1,14.7,0,22.1s2.1,8.6,8.8,8.6Z"/><path d="M439.4,145.4c-.1,30.5-.3,61,.1,91.5.1,8.1-4.2,14.6-13.7,17l-76.5,19.9c-18.9,4.9-37.9,9.7-56.8,14.4-3.3.8-6.3,3.2-10.4.7s-4.4-3.7-4.4-7c-.1-36.2,0-72.4-.1-108.6,0-3,1.4-3.6,4-3.7,5.8-.2,11.6-.7,17.5-.9,3.7-.2,6.9-1.3,6.9-5.6s-3.5-4.8-6.9-4.8c-5.5-.1-11.1-.2-16.6,0-3.5.1-5-.8-4.9-4.8.1-47.6,0-95.2,0-142.7.1-9.5,4.1-12,13.1-9.1s17.7,4.7,26.6,7l42.2,10.7,60.1,15.5,9.6,2.5c6.6,2.1,10.1,7.4,10.1,15.1Q439.4,98.9,439.4,145.4ZM290.8,45.1c0,6.9-.1,13.8,0,20.6s2.8,8.7,8.3,9.3l24.3,3.2,78,10.8c6.3.9,12.6,1.7,18.9,2.2s7.2-.9,7.2-6.8-.1-14.7.1-22.1.3-10.5-10.9-13.4L359.5,34.1,298,18.1c-5-1.3-7.2.6-7.2,5.9C290.7,31,290.8,38.1,290.8,45.1Zm68.3,98.1h60.3c6.1,0,8.1-1.9,8.1-7.6V112.4c0-6.1-1.4-7.6-7.6-8.2l-54.4-5.6-66.8-6.9c-5.2-.5-7.9,2.1-7.9,7.2-.1,11.6,0,23.2,0,34.7,0,7.5,2,9.6,9.4,9.6Z"/><path d="M472.2,343.3l8.5,12.7c-3.7,1.4-6.4,1.1-8.2-2.4-.5-1-1.5-1.8-1.9-2.9-2.9-8.5-9.9-7.5-16.6-7.2-2,.1-2.5,1.2-2.5,2.9s0,5,0,7.5-.5,2.8-2.5,2.9-3.2-.5-3.2-2.8c.1-9.2.1-18.4,0-27.7,0-2.5,1.3-3,3.5-3h18.6c6.4,0,10.8,2.7,11.9,7.1S478.8,340.2,472.2,343.3Zm-10.9-4.7h6.5c3.5,0,6.5-1.3,6.6-5.2s-3-5.3-6.3-5.6-9.4-.1-14-.1c-1.3,0-2.2.2-2.6,1.7-1.7,6.4.2,9.2,6.8,9.2Z"/><path d="M121.9,339.9c0-4.3.1-8.7-.1-13.1-.1-2.5.8-3.5,3.5-3.5,6.9.1,13.7-.1,20.6.1,5.2.1,9.1,3.2,9.9,7.7s-.8,9.1-5.6,11.1c-2.2.9-1.9,1.7-.9,3.1s3.4,4.6,4.9,7,3.1,2.7.9,4.1a3.9,3.9,0,0,1-5.4-1.2l-5.3-7.8c-2.2-3.2-12.7-5.6-15.8-3.7-1.1.6-1,1.6-1,2.6s-.1,4.7,0,7.1-.5,3.4-3.1,3.3-2.7-1.3-2.7-3.2C121.9,349,121.9,344.4,121.9,339.9Zm15.6-1.3h6c3.5,0,6.5-.8,6.6-5.1s-2.8-5.5-6.2-5.7-9-.1-13.5-.1c-1.4,0-2.5.1-2.9,1.9-1.5,6.8.1,9,7,9Z"/><path d="M273,343.2c1.5,2.2,3,4.4,4.4,6.7s3.2,3.8,3.8,6.4c-3.8,1.2-6.4.3-8-3.2-.3-.6-.9-1.1-1.1-1.7-2.9-8.1-9.4-8.6-16.6-8-2.5.2-3.2,1.1-3.1,3.4s0,4,0,6,.2,4-2.9,4-2.8-1.8-2.8-3.7c0-8.7.1-17.4,0-26.1-.1-3,1.1-3.8,3.8-3.7h18.6c6.3.1,10.7,2.9,11.6,7.5S279.5,340.4,273,343.2Zm-10.9-4.6h6.5c3.6,0,6.5-1.2,6.7-5.1s-2.9-5.5-6.3-5.7-9.3-.1-14-.1c-1.2,0-2.1.1-2.6,1.6-1.8,6.3.3,9.3,6.7,9.3Z"/><path d="M385.7,357.6c-4.5-.1-10-.4-14.1-4.5-1.4-1.3-3.7-3.3-1.3-5.4s3.9-1.1,5.7,1.4c3.1,4.5,16.3,5,20.5,1.3,2.5-2.2,2.1-5.2-1.2-6.7s-7.7-1.7-11.7-2a22.1,22.1,0,0,1-9.2-2.1c-4.8-2.4-5.8-7.7-2.3-11.8,5.8-6.7,22.6-7,28.5-.3,1.1,1.2,3.5,3,1.2,4.9s-3.6,1.1-5.4-1.2c-3.4-4.3-13.5-5-18.1-1.9a4,4,0,0,0-2.2,3.7c.2,2.1,1.9,2.8,3.5,3.1,3.4.6,6.9,1,10.4,1.3a23.9,23.9,0,0,1,8.8,1.9,8.7,8.7,0,0,1,.9,15.6C395.6,357.3,391.1,357.6,385.7,357.6Z"/><path d="M336.9,357.6c-5.3-.1-10.5-.3-14.6-4.1-1.6-1.5-4-3.5-1.6-5.8s3.8-.8,5.6,1.5c3.2,4.3,15.9,4.8,20.1,1.4s2.4-5.7-1-7-7.8-1.6-11.8-1.9-6-.5-8.8-1.9a7.8,7.8,0,0,1-2-12.6c5.9-6.1,21.9-6.1,27.8.2,1.2,1.3,3.5,3,1.4,4.9s-3.5,1.2-5.3-1.1c-3.3-4.3-13.5-5.1-18.1-1.9-1.4,1-2.8,2.1-2.5,4s2.5,2.7,4.2,3c5.1.8,10.3,1.1,15.4,2s8.4,3.7,8.5,8.7-2.9,8.4-8.9,9.8A34.2,34.2,0,0,1,336.9,357.6Z"/><path d="M40.2,340c0-11.2,6.7-17.4,19.1-17.4s19.1,6.4,19.1,17.6-6.8,17.3-19.3,17.4S40.2,351.4,40.2,340Zm18.5,12.7c8.8.1,14.2-4.5,14.5-12.3s-5.3-12.8-13.9-12.9-13.8,4.3-13.9,12.6S50,352.6,58.7,352.7Z"/><path d="M443.6,356.1c-4.1,1.5-6.7.6-7.9-3.3s-4-6.1-8.6-5.4a14,14,0,0,1-5,0c-4.9-.7-8.4.8-9.8,6a5.5,5.5,0,0,1-1.4,2.6,4.2,4.2,0,0,1-4.8.4c-1.8-.8-.4-2.3.1-3.4,4.5-9.1,9.1-18.3,13.7-27.4,1.7-3.1,6.6-3.5,8.1-.5C433.4,335.3,438.4,345.7,443.6,356.1ZM424,329.2l-6.5,13.5c4.6-.5,9.8,1.7,12-1.1s-2.5-6.2-3.9-9.6A19.1,19.1,0,0,0,424,329.2Z"/><path d="M211.2,339.5c0-4.1.1-8.3,0-12.5-.1-2.4.4-3.7,3.3-3.7h24.6c1.6,0,3.1.1,3,2.3s-1.8,2.1-3.3,2.1c-6.2,0-12.4.2-18.6-.1-3.9-.2-3.9,1.9-3.8,4.6s-1,5.6,3.6,5.3,10.4-.1,15.6-.1c1.6,0,3.6-.3,3.5,2.3s-2,1.9-3.4,1.9c-5.4.1-10.7.2-16.1,0s-3.2,3-3,5.2-1.9,5.8,3,5.7,12.7,0,19,0c1.6,0,3.7-.5,3.6,2.2s-2.2,2-3.7,2c-7.8.1-15.7-.1-23.5.1-2.8,0-3.9-.8-3.8-3.7C211.4,348.6,211.2,344.1,211.2,339.5Z"/><path d="M285.7,339.7v-7.5c0-8.9,0-8.9,9-8.9h18.6c1.6,0,3.2-.1,3.2,2.2s-1.6,2.2-3.1,2.2c-6.4,0-12.7.2-19.1-.1-4.3-.2-3.4,2.6-3.4,5s-.8,5.1,3.4,4.9,10.7-.1,16.1-.1c1.5,0,3.2-.1,3.1,2.2s-1.7,2-3.2,2c-5.4.1-10.7.2-16.1,0s-3.2,3.3-3.3,5.5-1.3,5.7,3.4,5.4c6.2-.2,12.4-.1,18.6,0,1.6,0,3.7-.6,3.8,2s-2,2.2-3.6,2.2c-8,.1-16.1-.1-24.1.1-2.7,0-3.5-1-3.4-3.5C285.8,348.7,285.7,344.2,285.7,339.7Z"/><path d="M159.1,339.8c0-9.7,4.6-14.9,14.4-16.6,7-1.2,13.7-.6,19.1,4.7,1.2,1.2,2.5,3,1.3,4.9s-2.1.9-3.2.7a2.7,2.7,0,0,1-1.6-1c-3.2-4.9-8.2-5.3-13.3-4.9-7.3.6-11.2,5.2-11.1,12.8s4.3,11.7,11.3,12.2c5,.3,9.8.3,13.3-4.1,1.4-1.8,3.7-1.3,5-.2s-.2,3.1-1.2,4.2c-4.2,5-15.9,6.7-24,3.6S159.1,348.3,159.1,339.8Z"/><path d="M116.7,335.7c-.2,3.8-.2,7.7-.7,11.5-.8,5.3-4.2,8.4-9.5,9.6a33.8,33.8,0,0,1-10.5.7c-9.7-.9-13.5-5.2-13.6-15,0-4.9-.1-9.7,0-14.6.1-1.9-1.1-4.7,2.7-4.5s2.4,3,2.5,4.8c.1,4.5-.1,9,.1,13.5.4,8.2,3.7,11.2,12.2,11s10.8-3.2,10.9-11.5V326.6c0-1.8.2-3.2,2.6-3.3s3.2,1.2,3.1,3.4,0,6,0,9Z"/><path d="M1.9,340c-.8-12.5,9.2-18.2,21.5-17.2,4.9.4,9.7,1.7,12.6,6.2.7,1.1,2.2,2.7.6,4a3.3,3.3,0,0,1-4.9-.6c-4.3-5.8-10.2-5.7-16.3-4.1s-8.2,5.6-8.2,11.6,2.5,10.3,8,11.8,11.6,2.1,16.2-2.8c1.8-1.9,3.9-2,5.3-.5s-.2,3.4-1.5,4.6c-4.5,4.7-16.8,6.1-24.2,2.9S1.9,348.1,1.9,340Z"/><path d="M484.8,339.9V326.8c-.1-2,0-3.6,2.8-3.5s2.4,1.7,2.4,3.5c0,7.2.2,14.4,0,21.5-.2,3.4,1,4.4,4.2,4.2,4.9-.2,9.7-.1,14.6,0,1.5,0,3.1-.3,3.2,2.1s-1.6,2.1-3.1,2.1H487.8c-2.5,0-3.1-1.1-3.1-3.3C484.9,348.9,484.8,344.4,484.8,339.9Z"/><path d="M199.3,340.1c0-4.5.1-9.1,0-13.6,0-1.9.5-3.1,2.8-3.1s2.8,1.1,2.8,3.1v27.1c0,2-.5,3.1-2.8,3.1s-2.8-1.1-2.8-3.1C199.4,349.1,199.3,344.6,199.3,340.1Z"/></g><g fill="#97a1e0"><rect y="37.9" width="60.5" height="215.24" rx="11.9"/><rect x="446.5" y="37.9" width="60.5" height="215.24" rx="11.9"/></g></svg>