<svg xmlns="http://www.w3.org/2000/svg" viewBox="0 0 1024 240"><g fill="#47525b"><path d="M381.3,25.4h18.8L371.4,92.5H352.7L324,25.4h20.5l18.2,43.7Zm44.5,40.2h29.8V51.4H425.8V40.1h33.8V25.4H407V92.5h53.9V77.8H425.8Zm87.8-4.4L484,25.4H468.4V92.5H487V56.8l29.6,35.7h15.6V25.4H513.6Zm85.8-35.8H539.3V40.5h20.6v52h19v-52h20.5Zm44,0,29.7,67.1H653.3l-5.3-13H619.7l-5.3,13H595.1l29.6-67.1Zm-.9,40.1L633.9,44l-8.7,21.5Zm133-6.5c0,20.6-15.3,33.5-37.5,33.5H706.3V25.4H738C760.2,25.4,775.5,38.4,775.5,59Zm-19.2,0c0-11.6-7.7-18.4-19.1-18.4H725.3V77.4h11.9C748.6,77.4,756.3,70.5,756.3,59Zm47.9,18.8V65.6H834V51.4H804.2V40.1H838V25.4H785.4V92.5h53.9V77.8Z"/><path d="M332.1,121.2H351v67H332.1Zm77.6,35.7-29.6-35.7H364.5v67h18.6V152.5l29.5,35.7h15.6v-67H409.7Zm103-2.2c0,20.1-15.8,34.8-37.3,34.8s-37.2-14.7-37.2-34.8,15.8-34.9,37.2-34.9S512.7,134.6,512.7,154.7Zm-19.2,0c0-11.6-7.9-19.2-18.1-19.2s-18.1,7.6-18.1,19.2,8,19.1,18.1,19.1S493.5,166.2,493.5,154.7Zm89.3-33.5H562.3l-13.2,19.3-13.4-19.3H514.4l23.3,33.1-24.4,33.9H535l13.6-20.8,13.9,20.8h21.8l-24.8-34.7Zm5.9,67h19v-67h-19Zm101.6-33.5c0,20.5-15.2,33.5-37.4,33.5H621.2v-67h31.7C675.1,121.2,690.3,134.1,690.3,154.7Zm-19.2,0c0-11.6-7.6-18.4-19-18.4h-12V173h12C663.5,173,671.1,166.2,671.1,154.7Zm68.4-33.5,29.6,67H749.4l-5.2-13.1H715.8l-5.2,13.1H691.2l29.6-67Zm-.9,40L730,139.7l-8.6,21.5Zm99.6,8.6c0,11.6-9.5,18.4-27.5,18.4H774.5v-67h34.3c17.6,0,26.2,7.1,26.2,17.5a15.8,15.8,0,0,1-9,14.5C833.5,155.9,838.2,161.6,838.2,169.8Zm-44.9-22h13c6.3,0,9.5-2.2,9.5-6.5s-3.2-6.4-9.5-6.4h-13Zm25.8,19.9c0-4.6-3.4-6.8-10-6.8H793.3v13.6h15.8C815.7,174.5,819.1,172.3,819.1,167.7Zm45-46.5h-19v67H896V173.1H864.1Zm61.1,40.1H955V147.1H925.2V135.8H959V121.2H906.5v67h53.8V173.5H925.2ZM986,140.6c0-3.4,2.9-6,10.8-6a39.9,39.9,0,0,1,18.6,5.1l5.8-14c-6.6-3.9-15.6-5.9-24.3-5.9-19.9,0-29.7,9.8-29.7,21.7,0,24.9,38.1,17.2,38.1,27.8,0,3.3-3,5.5-10.9,5.5a42.8,42.8,0,0,1-22.1-6.6l-6.2,13.9c6.3,4.4,17.2,7.4,28.2,7.4,19.9,0,29.7-10,29.7-21.6C1024,143.2,986,150.8,986,140.6Z"/></g><g fill="#de0009"><path d="M250.8,134.8l-45.6,79.7h0a40.7,40.7,0,0,1-70.3,0h0L50.6,67.2C24.3,21.1,0,5.3,0,5.3H84.7a40.1,40.1,0,0,1,35.7,22h0l60.1,105.3a40.7,40.7,0,0,0,70.3,2.2Zm4-129.5A40.7,40.7,0,1,0,295.4,46,40.7,40.7,0,0,0,254.8,5.3Z"/><path d="M335.3,233.7H332v-23h16.2v2.8H335.3Zm-.4-12.2h11.9v2.9H334.9Z"/><path d="M349.7,233.7l10.4-23h3.3l10.5,23h-3.5l-9.3-21.2h1.3l-9.3,21.2Zm4.5-5.8.8-2.6h13l1,2.6Z"/><path d="M378.7,233.7v-23H389c2.7,0,4.7.5,6.1,1.6a5.1,5.1,0,0,1,2.2,4.3,5.5,5.5,0,0,1-.9,3.2,5.1,5.1,0,0,1-2.2,1.9,6.7,6.7,0,0,1-3.1.7l.6-1a9.5,9.5,0,0,1,3.5.7,6.1,6.1,0,0,1,2.4,2.1,5.6,5.6,0,0,1,.9,3.3,5.7,5.7,0,0,1-2.2,4.6,11.9,11.9,0,0,1-6.6,1.6ZM382,231h7.5a8.2,8.2,0,0,0,4.2-.9,3.6,3.6,0,0,0,0-5.8,8.2,8.2,0,0,0-4.2-.9h-7.8v-2.7h7a7,7,0,0,0,3.9-.9A3.2,3.2,0,0,0,394,217a3.4,3.4,0,0,0-1.4-2.8,7,7,0,0,0-3.9-.9H382Z"/><path d="M405,233.7v-23h8.9a13.1,13.1,0,0,1,5.2.9,7.5,7.5,0,0,1,3.3,2.8,9,9,0,0,1,0,8.6,7.3,7.3,0,0,1-3.3,2.7,11.5,11.5,0,0,1-5.2,1h-7.1l1.4-1.5v8.5Zm3.2-8.2-1.4-1.6h7a7.4,7.4,0,0,0,4.8-1.4,4.7,4.7,0,0,0,1.7-3.8,4.6,4.6,0,0,0-1.7-3.8,7.4,7.4,0,0,0-4.8-1.4h-7l1.4-1.6Zm12.2,8.2-5.9-8.4H418l5.9,8.4Z"/><path d="M430.3,233.7v-23h3.2v23Z"/><path d="M452.1,233.9a12.7,12.7,0,0,1-4.8-.8,11.4,11.4,0,0,1-3.9-2.5,11.5,11.5,0,0,1-2.5-3.7,12.3,12.3,0,0,1-.9-4.7,11.9,11.9,0,0,1,.9-4.7,10.9,10.9,0,0,1,2.5-3.8,11.1,11.1,0,0,1,3.9-2.4,13,13,0,0,1,4.9-.9,13.3,13.3,0,0,1,4.9.9,9.4,9.4,0,0,1,3.8,2.7l-2.1,2.1a7.5,7.5,0,0,0-3-2.1,8.4,8.4,0,0,0-3.5-.7,8.6,8.6,0,0,0-3.6.7,7.9,7.9,0,0,0-2.9,1.8,9.2,9.2,0,0,0-1.9,2.8,9.4,9.4,0,0,0,0,7.1,9.2,9.2,0,0,0,1.9,2.8,9.7,9.7,0,0,0,2.9,1.9,10.5,10.5,0,0,0,3.6.6,8.4,8.4,0,0,0,3.5-.7,8.3,8.3,0,0,0,3-2l2.1,2a9.4,9.4,0,0,1-3.8,2.7A13.5,13.5,0,0,1,452.1,233.9Z"/><path d="M463,233.7l10.4-23h3.2l10.5,23h-3.5l-9.3-21.2h1.4l-9.4,21.2Zm4.4-5.8.9-2.6h12.9l1,2.6Z"/><path d="M501.9,233.9a12.9,12.9,0,0,1-4.9-.8,10.9,10.9,0,0,1-3.8-2.5,11.8,11.8,0,0,1-2.6-3.7,12.3,12.3,0,0,1-.9-4.7,11.9,11.9,0,0,1,.9-4.7,11,11,0,0,1,6.5-6.2,12.1,12.1,0,0,1,4.8-.9,13,13,0,0,1,4.9.9,10.5,10.5,0,0,1,3.9,2.7l-2.2,2.1a7.2,7.2,0,0,0-2.9-2.1,9.6,9.6,0,0,0-7.2,0,7.5,7.5,0,0,0-2.8,1.8,6.7,6.7,0,0,0-1.9,2.8,8.6,8.6,0,0,0-.7,3.6,8.4,8.4,0,0,0,.7,3.5,6.7,6.7,0,0,0,1.9,2.8,9.2,9.2,0,0,0,2.8,1.9,10.5,10.5,0,0,0,3.6.6,8.6,8.6,0,0,0,3.6-.7,8,8,0,0,0,2.9-2l2.2,2a10.5,10.5,0,0,1-3.9,2.7A13,13,0,0,1,501.9,233.9Z"/><path d="M516.7,233.7v-23H520v23Z"/><path d="M538.7,233.9a13.3,13.3,0,0,1-4.9-.8,13,13,0,0,1-3.9-2.5,10.9,10.9,0,0,1-2.5-3.8,11.5,11.5,0,0,1-1-4.6,12,12,0,0,1,1-4.7,10.5,10.5,0,0,1,2.5-3.7,11.4,11.4,0,0,1,3.9-2.5,13.8,13.8,0,0,1,9.8,0,11.1,11.1,0,0,1,3.9,2.4,10.9,10.9,0,0,1,2.5,3.8,11.9,11.9,0,0,1,.9,4.7,12.3,12.3,0,0,1-.9,4.7,11.5,11.5,0,0,1-2.5,3.7,11.4,11.4,0,0,1-3.9,2.5A12.9,12.9,0,0,1,538.7,233.9Zm0-2.9a10.5,10.5,0,0,0,3.6-.6,10.7,10.7,0,0,0,2.8-1.9,9.2,9.2,0,0,0,1.9-2.8,10.3,10.3,0,0,0,.6-3.5,9.5,9.5,0,0,0-.6-3.5,9.2,9.2,0,0,0-1.9-2.8,7.3,7.3,0,0,0-2.8-1.9,9.6,9.6,0,0,0-7.2,0,7.3,7.3,0,0,0-2.8,1.9,9.2,9.2,0,0,0-1.9,2.8,9.5,9.5,0,0,0-.7,3.5,10.4,10.4,0,0,0,.7,3.5,9.2,9.2,0,0,0,1.9,2.8,10.7,10.7,0,0,0,2.8,1.9A10.5,10.5,0,0,0,538.7,231Zm-2.5-22.2,4.5-4.3h4l-5.5,4.3Z"/><path d="M557.3,233.7v-23H560l15.3,18.9h-1.5V210.7h3.3v23h-2.7l-15.2-18.9h1.4v18.9Z"/><path d="M601.2,233.7v-8.8l.8,2-9.9-16.2h3.5l8.3,13.7H602l8.4-13.7h3.2l-9.8,16.2.7-2v8.8Z"/><path d="M628.6,233.7v-23h9.7a13.8,13.8,0,0,1,6.5,1.4,11.1,11.1,0,0,1,4.3,4,11.3,11.3,0,0,1,1.6,6.1,10.8,10.8,0,0,1-1.6,6,10.4,10.4,0,0,1-4.3,4,13.8,13.8,0,0,1-6.5,1.5Zm3.2-2.9h6.3a9.6,9.6,0,0,0,4.9-1.1,8,8,0,0,0,3.3-3,9.4,9.4,0,0,0,1.1-4.5,9.5,9.5,0,0,0-1.1-4.6,8,8,0,0,0-3.3-3,10.7,10.7,0,0,0-4.9-1.1h-6.3Z"/><path d="M657.1,233.7v-23h3.3v23Z"/><path d="M675.4,233.9a13.8,13.8,0,0,1-5-.8,10.4,10.4,0,0,1-3.8-2l1.2-2.6a10.1,10.1,0,0,0,3.4,1.9,11.6,11.6,0,0,0,4.2.8,10.4,10.4,0,0,0,3.3-.5,3.5,3.5,0,0,0,1.8-1.3,2.8,2.8,0,0,0,.6-1.8,2.6,2.6,0,0,0-.8-1.9,5.6,5.6,0,0,0-2-1.2l-2.7-.8-3-.7a11.1,11.1,0,0,1-2.7-1.2,4.9,4.9,0,0,1-2-1.8,5.6,5.6,0,0,1-.8-3,6.3,6.3,0,0,1,3.9-5.7,11.8,11.8,0,0,1,5-.9,17.4,17.4,0,0,1,3.9.5,14.2,14.2,0,0,1,3.5,1.5l-1.1,2.7a9.9,9.9,0,0,0-3.1-1.5,12.2,12.2,0,0,0-3.2-.4,9.3,9.3,0,0,0-3.2.5,3.4,3.4,0,0,0-1.9,1.3,3.7,3.7,0,0,0-.5,1.8,2.6,2.6,0,0,0,.7,2,6,6,0,0,0,2.1,1.1l2.7.8,2.9.8a11.7,11.7,0,0,1,2.8,1.1,7,7,0,0,1,2,1.8,5.6,5.6,0,0,1,.7,3,5.9,5.9,0,0,1-.9,3.2,7.3,7.3,0,0,1-3,2.4A12.1,12.1,0,0,1,675.4,233.9Z"/><path d="M694.7,233.7V213.5h-7.8v-2.8h19v2.8H698v20.2Z"/><path d="M710.9,233.7v-23h8.9a13.1,13.1,0,0,1,5.2.9,8,8,0,0,1,3.3,11.4,7.3,7.3,0,0,1-3.3,2.7,11.5,11.5,0,0,1-5.2,1h-7.1l1.5-1.5v8.5Zm3.3-8.2-1.5-1.6h7.1a6.9,6.9,0,0,0,4.7-1.4,4.7,4.7,0,0,0,1.7-3.8,4.6,4.6,0,0,0-1.7-3.8,6.9,6.9,0,0,0-4.7-1.4h-7.1l1.5-1.6Zm12.1,8.2-5.9-8.4h3.5l5.9,8.4Z"/><path d="M736.2,233.7v-23h3.3v23Z"/><path d="M747.7,233.7v-23h10.4c2.6,0,4.7.5,6.1,1.6a5,5,0,0,1,2.1,4.3,5.5,5.5,0,0,1-.8,3.2,5.4,5.4,0,0,1-2.3,1.9,6,6,0,0,1-3,.7l.6-1a9.5,9.5,0,0,1,3.5.7,6.1,6.1,0,0,1,2.4,2.1,5.6,5.6,0,0,1,.8,3.3,5.4,5.4,0,0,1-2.2,4.6,11.9,11.9,0,0,1-6.6,1.6ZM751,231h7.6a8.2,8.2,0,0,0,4.2-.9,3.7,3.7,0,0,0,0-5.8,8.2,8.2,0,0,0-4.2-.9h-7.9v-2.7h7.1a7.5,7.5,0,0,0,3.9-.9A3.2,3.2,0,0,0,763,217a3.3,3.3,0,0,0-1.3-2.8,7.5,7.5,0,0,0-3.9-.9H751Z"/><path d="M783.6,233.9c-3.1,0-5.4-.8-7.2-2.6s-2.6-4.2-2.6-7.6v-13h3.3v12.9c0,2.6.6,4.5,1.7,5.6a7.3,7.3,0,0,0,9.6,0c1.2-1.1,1.7-3,1.7-5.6V210.7h3.2v13c0,3.4-.9,5.9-2.6,7.6S786.6,233.9,783.6,233.9Z"/><path d="M811.7,233.9a12.7,12.7,0,0,1-4.8-.8,11.4,11.4,0,0,1-3.9-2.5,11.5,11.5,0,0,1-2.5-3.7,12.3,12.3,0,0,1-.9-4.7,11.9,11.9,0,0,1,.9-4.7,10.9,10.9,0,0,1,2.5-3.8,11.1,11.1,0,0,1,3.9-2.4,13,13,0,0,1,4.9-.9,13.3,13.3,0,0,1,4.9.9,9.4,9.4,0,0,1,3.8,2.7l-2.1,2.1a7.5,7.5,0,0,0-3-2.1,8.4,8.4,0,0,0-3.5-.7,8.6,8.6,0,0,0-3.6.7,7.9,7.9,0,0,0-2.9,1.8,9.2,9.2,0,0,0-1.9,2.8,9.4,9.4,0,0,0,0,7.1,9.2,9.2,0,0,0,1.9,2.8,9.7,9.7,0,0,0,2.9,1.9,10.5,10.5,0,0,0,3.6.6,8.4,8.4,0,0,0,3.5-.7,8.3,8.3,0,0,0,3-2l2.1,2a9.4,9.4,0,0,1-3.8,2.7A13.5,13.5,0,0,1,811.7,233.9Z"/><path d="M826.6,233.7v-23h3.3v23Z"/><path d="M848.6,233.9a11.8,11.8,0,0,1-8.8-3.3,11.2,11.2,0,0,1-2.6-3.8,11.4,11.4,0,0,1-.9-4.6,11.9,11.9,0,0,1,.9-4.7,10.8,10.8,0,0,1,2.6-3.7,11.4,11.4,0,0,1,3.9-2.5,13,13,0,0,1,4.9-.9,12.4,12.4,0,0,1,4.8.9,11,11,0,0,1,6.5,6.2,11.9,11.9,0,0,1,.9,4.7,12.3,12.3,0,0,1-.9,4.7,11.8,11.8,0,0,1-2.6,3.7,11.4,11.4,0,0,1-3.9,2.5A12.4,12.4,0,0,1,848.6,233.9Zm-.1-2.9a10.5,10.5,0,0,0,3.6-.6,9.2,9.2,0,0,0,2.8-1.9,7.7,7.7,0,0,0,1.9-2.8,8.4,8.4,0,0,0,.7-3.5,7.8,7.8,0,0,0-.7-3.5,7.7,7.7,0,0,0-1.9-2.8,6.7,6.7,0,0,0-2.8-1.9,8.6,8.6,0,0,0-3.6-.7,8.4,8.4,0,0,0-3.5.7,9,9,0,0,0-4.7,4.7,7.8,7.8,0,0,0-.7,3.5,8.4,8.4,0,0,0,.7,3.5,6.7,6.7,0,0,0,1.9,2.8,9.2,9.2,0,0,0,2.8,1.9A10.3,10.3,0,0,0,848.5,231Zm-2.4-22.2,4.5-4.3h4l-5.5,4.3Z"/><path d="M867.2,233.7v-23h2.7l15.2,18.9h-1.4V210.7H887v23h-2.7l-15.2-18.9h1.4v18.9Z"/></g></svg>