<svg xmlns="http://www.w3.org/2000/svg" viewBox="0 0 512 512"><style>@keyframes stroke{0%{stroke-dashoffset:200%}}@keyframes fill{0%{fill:transparent;stroke:#0f1b25}}#logo>path{stroke-dasharray:200%;stroke-width:2;stroke:transparent;animation:2s cubic-bezier(.47,0,.745,.715) both stroke,1.7s cubic-bezier(.47,0,.745,.715) .7s both fill}</style><g id="logo"><path d="M327.9,182.2,287,253.6h0a36.5,36.5,0,0,1-63,0h0l-75.5-132c-23.7-41.3-45.4-55.5-45.4-55.5H179a36,36,0,0,1,32.1,19.7h0l53.8,94.4a36.5,36.5,0,0,0,63,2Zm3.6-116.1a36.5,36.5,0,1,0,36.4,36.5A36.5,36.5,0,0,0,331.5,66.1Z" fill="#de0009"/><path d="M117,306.1h13.1l-20,46.6H97.2L77.3,306.1H91.5l12.6,30.3ZM147.9,334h20.6v-9.9H147.9v-7.8h23.4V306.1H134.9v46.6h37.3V342.5H147.9Zm60.9-3.1-20.5-24.8H177.4v46.6h12.9V327.9l20.6,24.8h10.8V306.1H208.8Zm59.5-24.8H226.6v10.5h14.3v36.1h13.2V316.6h14.2Zm30.5,0,20.6,46.6H305.7l-3.6-9.1H282.4l-3.7,9.1H265.3l20.5-46.6Zm-.6,27.8-6-14.9-6,14.9Zm92.3-4.5c0,14.3-10.6,23.3-26,23.3h-22V306.1h22C379.9,306.1,390.5,315.1,390.5,329.4Zm-13.3,0c0-8-5.4-12.8-13.3-12.8h-8.3v25.6h8.3C371.8,342.2,377.2,337.4,377.2,329.4Zm33.2,13.1V334h20.7v-9.9H410.4v-7.8h23.5V306.1H397.4v46.6h37.3V342.5Z" fill="#0f1b25"/><path d="M16,367.5H29.1V414H16Zm53.8,24.8L49.3,367.5H38.5V414H51.4V389.3L71.9,414H82.7V367.5H69.8Zm71.5-1.5c0,13.9-11,24.1-25.8,24.1s-25.9-10.2-25.9-24.1,11-24.2,25.9-24.2S141.3,376.8,141.3,390.8Zm-13.3,0c0-8.1-5.5-13.3-12.5-13.3s-12.6,5.2-12.6,13.3,5.5,13.3,12.6,13.3S128,398.8,128,390.8Zm61.9-23.3H175.7L166.6,381l-9.3-13.5H142.5l16.2,23-17,23.5h15.1l9.4-14.4,9.7,14.4H191l-17.3-24Zm4.2,46.5h13.1V367.5H194.1Zm70.4-23.2c0,14.3-10.6,23.2-26,23.2H216.6V367.5h21.9C253.9,367.5,264.5,376.5,264.5,390.8Zm-13.3,0c0-8.1-5.3-12.8-13.2-12.8h-8.3v25.5H238C245.9,403.5,251.2,398.8,251.2,390.8Zm47.4-23.3L319.2,414H305.5l-3.6-9H282.2l-3.6,9H265.2l20.5-46.5Zm-.6,27.8-5.9-14.9-6,14.9Zm69.1,6c0,8-6.6,12.7-19.1,12.7H322.9V367.5h23.8c12.2,0,18.2,5,18.2,12.2a11.1,11.1,0,0,1-6.3,10.1C363.9,391.6,367.1,395.6,367.1,401.3ZM335.9,386H345c4.3,0,6.6-1.5,6.6-4.5s-2.3-4.5-6.6-4.5h-9.1Zm18,13.8c0-3.2-2.4-4.7-6.9-4.7H335.9v9.4H347C351.5,404.5,353.9,403,353.9,399.8ZM385,367.5H371.9V414h35.3V403.6H385Zm42.5,27.9h20.6v-9.9H427.5v-7.8h23.4V367.5H414.5V414h37.3V403.9H427.5ZM469.6,381c0-2.3,2-4.2,7.5-4.2a27.1,27.1,0,0,1,12.9,3.6l4.1-9.7c-4.6-2.7-10.8-4.1-16.9-4.1-13.8,0-20.6,6.8-20.6,15.1,0,17.2,26.5,11.9,26.5,19.2,0,2.3-2.2,3.8-7.6,3.8a28.4,28.4,0,0,1-15.3-4.6l-4.4,9.7c4.4,3.1,12,5.1,19.6,5.1,13.8,0,20.6-6.9,20.6-15C496,382.8,469.6,388.1,469.6,381Z" fill="#0f1b25"/><path d="M66.6,445.7H64.3V429.8H75.5v1.9H66.6Zm-.3-8.4h8.2v1.9H66.3Z" fill="#de0009"/><path d="M76.5,445.7l7.3-15.9H86l7.2,15.9H90.8L84.4,431h.9l-6.4,14.7Zm3.1-4,.6-1.8h9l.6,1.8Z" fill="#de0009"/><path d="M96.5,445.7V429.8h7.2a6.6,6.6,0,0,1,4.2,1.1,3.4,3.4,0,0,1,1.5,3,4,4,0,0,1-.6,2.2,3.7,3.7,0,0,1-1.5,1.3,5.4,5.4,0,0,1-2.2.5l.4-.7a6.2,6.2,0,0,1,2.5.5,3.6,3.6,0,0,1,1.6,1.4,4.1,4.1,0,0,1,.6,2.3,3.9,3.9,0,0,1-1.5,3.2,8,8,0,0,1-4.6,1.1Zm2.3-1.9H104a5.5,5.5,0,0,0,2.9-.6,2.5,2.5,0,0,0,0-4,5.4,5.4,0,0,0-2.9-.7H98.6v-1.8h4.9a5.4,5.4,0,0,0,2.7-.6,2.3,2.3,0,0,0,.9-1.9,2.4,2.4,0,0,0-.9-2,5.4,5.4,0,0,0-2.7-.6H98.8Z" fill="#de0009"/><path d="M114.7,445.7V429.8h6.2a9.7,9.7,0,0,1,3.6.6,5.1,5.1,0,0,1,3,4.9,4.8,4.8,0,0,1-.8,3,5.2,5.2,0,0,1-2.2,1.9,9.7,9.7,0,0,1-3.6.6H116l1-1v5.9ZM117,440l-1-1.1h4.8a5,5,0,0,0,3.3-.9,3.3,3.3,0,0,0,1.2-2.7,3.1,3.1,0,0,0-1.2-2.6,5,5,0,0,0-3.3-1H116l1-1.1Zm8.3,5.7-4-5.8h2.4l4.1,5.8Z" fill="#de0009"/><path d="M132.2,445.7V429.8h2.3v15.9Z" fill="#de0009"/><path d="M147.3,445.9a9.7,9.7,0,0,1-3.4-.6,7.8,7.8,0,0,1-2.6-1.7,7.6,7.6,0,0,1-1.8-2.6,8.8,8.8,0,0,1-.6-3.3,8.3,8.3,0,0,1,.6-3.2,6.8,6.8,0,0,1,1.8-2.6,8.3,8.3,0,0,1,2.7-1.7,8.8,8.8,0,0,1,3.3-.6,9.3,9.3,0,0,1,3.4.6,6.4,6.4,0,0,1,2.7,1.9l-1.5,1.4a6,6,0,0,0-2.1-1.4,6,6,0,0,0-2.4-.5,7,7,0,0,0-2.5.5,8.2,8.2,0,0,0-2,1.2,6.9,6.9,0,0,0-1.3,2,6.1,6.1,0,0,0-.4,2.4,6.9,6.9,0,0,0,.4,2.5,6.4,6.4,0,0,0,1.3,1.9,6.3,6.3,0,0,0,2,1.3,6.9,6.9,0,0,0,2.5.4,6.1,6.1,0,0,0,2.4-.4,5.1,5.1,0,0,0,2.1-1.5l1.5,1.5a7.1,7.1,0,0,1-2.7,1.8A7.7,7.7,0,0,1,147.3,445.9Z" fill="#de0009"/><path d="M154.8,445.7l7.2-15.9h2.2l7.3,15.9h-2.4L162.6,431h.9l-6.4,14.7Zm3-4,.7-1.8h8.9l.7,1.8Z" fill="#de0009"/><path d="M181.7,445.9a9,9,0,0,1-3.4-.6,9.5,9.5,0,0,1-2.7-1.7,9,9,0,0,1-1.7-2.6,8.8,8.8,0,0,1-.7-3.3,8.3,8.3,0,0,1,.7-3.2,6.8,6.8,0,0,1,1.8-2.6,7.8,7.8,0,0,1,2.6-1.7,9.3,9.3,0,0,1,3.4-.6,9.7,9.7,0,0,1,3.4.6,6.1,6.1,0,0,1,2.6,1.9l-1.5,1.4a5.6,5.6,0,0,0-2-1.4,6.9,6.9,0,0,0-2.4-.5,6.6,6.6,0,0,0-2.5.5,6.7,6.7,0,0,0-2,1.2,5.3,5.3,0,0,0-1.3,2,6,6,0,0,0-.5,2.4,7,7,0,0,0,.5,2.5,5,5,0,0,0,1.3,1.9,5.3,5.3,0,0,0,2,1.3,6.6,6.6,0,0,0,2.5.4,6.7,6.7,0,0,0,2.4-.4,4.8,4.8,0,0,0,2-1.5l1.5,1.5a6.8,6.8,0,0,1-2.6,1.8A8,8,0,0,1,181.7,445.9Z" fill="#de0009"/><path d="M191.9,445.7V429.8h2.3v15.9Z" fill="#de0009"/><path d="M207.1,445.9a8,8,0,0,1-3.4-.7,7.7,7.7,0,0,1-2.7-1.7,8.5,8.5,0,0,1-1.7-2.5,7.2,7.2,0,0,1-.7-3.3,7.1,7.1,0,0,1,.7-3.2,9,9,0,0,1,1.7-2.6,9.5,9.5,0,0,1,2.7-1.7,9.9,9.9,0,0,1,6.8,0,9.5,9.5,0,0,1,2.7,1.7,7.8,7.8,0,0,1,1.7,2.6,8.7,8.7,0,0,1,.6,3.2,8.8,8.8,0,0,1-.6,3.3,9,9,0,0,1-1.7,2.6,9.5,9.5,0,0,1-2.7,1.7A9.7,9.7,0,0,1,207.1,445.9Zm0-2.1a6.1,6.1,0,0,0,2.4-.4,4.6,4.6,0,0,0,2-1.3,5.9,5.9,0,0,0,1.3-1.9,7,7,0,0,0,.5-2.5,6,6,0,0,0-.5-2.4,5,5,0,0,0-1.3-1.9,4.6,4.6,0,0,0-2-1.3,6,6,0,0,0-2.4-.5,7,7,0,0,0-2.5.5,6.2,6.2,0,0,0-3.2,3.2,6,6,0,0,0-.5,2.4,7,7,0,0,0,.5,2.5,5.9,5.9,0,0,0,1.3,1.9,5,5,0,0,0,1.9,1.3A6.9,6.9,0,0,0,207.1,443.8Zm-1.7-15.3,3.1-3h2.8l-3.9,3Z" fill="#de0009"/><path d="M220,445.7V429.8h1.8l10.6,13h-1v-13h2.3v15.9h-1.9l-10.5-13.1h.9v13.1Z" fill="#de0009"/><path d="M250.3,445.7v-6.1l.5,1.4L244,429.8h2.4l5.7,9.4h-1.3l5.8-9.4h2.3L252,441l.5-1.4v6.1Z" fill="#de0009"/><path d="M269.2,445.7V429.8h6.7a9.3,9.3,0,0,1,4.5,1,6.8,6.8,0,0,1,3,2.8,8.1,8.1,0,0,1,1.1,4.1,8.2,8.2,0,0,1-1.1,4.2,7.4,7.4,0,0,1-3,2.8,10.6,10.6,0,0,1-4.5,1Zm2.2-2h4.3a7.5,7.5,0,0,0,3.5-.7,5.6,5.6,0,0,0,2.2-2.1,6.6,6.6,0,0,0,.8-3.2,6.2,6.2,0,0,0-.8-3.1,5.6,5.6,0,0,0-2.2-2.1,7.5,7.5,0,0,0-3.5-.8h-4.3Z" fill="#de0009"/><path d="M288.9,445.7V429.8h2.3v15.9Z" fill="#de0009"/><path d="M301.5,445.9a9.7,9.7,0,0,1-3.4-.6,7.6,7.6,0,0,1-2.7-1.4l.9-1.8a7.3,7.3,0,0,0,2.3,1.3,8.8,8.8,0,0,0,5.2.2,2.5,2.5,0,0,0,1.3-.9,2.5,2.5,0,0,0,.4-1.2,1.5,1.5,0,0,0-.6-1.3,2.7,2.7,0,0,0-1.4-.8,9.5,9.5,0,0,0-1.8-.6l-2.1-.5-1.9-.8a4.3,4.3,0,0,1-1.4-1.3,4.1,4.1,0,0,1-.5-2.1,3.6,3.6,0,0,1,.7-2.2,4.2,4.2,0,0,1,2-1.7,8.3,8.3,0,0,1,3.4-.6,9,9,0,0,1,2.8.4,5.4,5.4,0,0,1,2.3,1l-.7,1.8a8.8,8.8,0,0,0-2.2-1,8.3,8.3,0,0,0-2.2-.3,4.8,4.8,0,0,0-2.2.4,2.3,2.3,0,0,0-1.6,2.1,1.6,1.6,0,0,0,.5,1.4,3.7,3.7,0,0,0,1.4.8l1.8.5,2.1.5,1.9.8a4.4,4.4,0,0,1,1.4,1.3,3.9,3.9,0,0,1,.5,2,3.9,3.9,0,0,1-.7,2.3,4.1,4.1,0,0,1-2,1.6A7.3,7.3,0,0,1,301.5,445.9Z" fill="#de0009"/><path d="M314.9,445.7v-14h-5.5v-1.9h13.2v1.9h-5.5v14Z" fill="#de0009"/><path d="M326,445.7V429.8h6.2a9.7,9.7,0,0,1,3.6.6,6.2,6.2,0,0,1,2.3,1.9,6.1,6.1,0,0,1,.8,3,5.6,5.6,0,0,1-.8,3,6.2,6.2,0,0,1-2.3,1.9,9.7,9.7,0,0,1-3.6.6h-4.9l1-1v5.9Zm2.3-5.7-1-1.1h4.9a5.4,5.4,0,0,0,3.3-.9,3.5,3.5,0,0,0,1.1-2.7,3.3,3.3,0,0,0-1.1-2.6,5.4,5.4,0,0,0-3.3-1h-4.9l1-1.1Zm8.4,5.7-4.1-5.8h2.5l4,5.8Z" fill="#de0009"/><path d="M343.5,445.7V429.8h2.3v15.9Z" fill="#de0009"/><path d="M351.5,445.7V429.8h7.1a6.7,6.7,0,0,1,4.3,1.1,3.4,3.4,0,0,1,1.4,3,4,4,0,0,1-.5,2.2,3.4,3.4,0,0,1-1.6,1.3,4.6,4.6,0,0,1-2.1.5l.4-.7a6,6,0,0,1,2.4.5,3.9,3.9,0,0,1,1.7,1.4,4.1,4.1,0,0,1,.6,2.3,3.9,3.9,0,0,1-1.5,3.2,8.4,8.4,0,0,1-4.6,1.1Zm2.3-1.9H359a5.7,5.7,0,0,0,2.9-.6,2.5,2.5,0,0,0,0-4,5.6,5.6,0,0,0-2.9-.7h-5.4v-1.8h4.8a4.9,4.9,0,0,0,2.7-.6,2.2,2.2,0,0,0,1-1.9,2.2,2.2,0,0,0-1-2,4.9,4.9,0,0,0-2.7-.6h-4.6Z" fill="#de0009"/><path d="M376.3,445.9a6.8,6.8,0,0,1-5-1.8,7.2,7.2,0,0,1-1.8-5.3v-9h2.3v8.9a5.4,5.4,0,0,0,1.2,3.9,4.3,4.3,0,0,0,3.3,1.2,4.5,4.5,0,0,0,3.3-1.2,5.4,5.4,0,0,0,1.2-3.9v-8.9H383v9a7.2,7.2,0,0,1-1.8,5.3A6.6,6.6,0,0,1,376.3,445.9Z" fill="#de0009"/><path d="M395.7,445.9a8.8,8.8,0,0,1-3.3-.6,7.3,7.3,0,0,1-2.7-1.7,9.3,9.3,0,0,1-1.8-2.6,8.8,8.8,0,0,1-.6-3.3,8.3,8.3,0,0,1,.6-3.2,8.1,8.1,0,0,1,1.8-2.6,9.5,9.5,0,0,1,2.7-1.7,8.8,8.8,0,0,1,3.3-.6,9,9,0,0,1,3.4.6,6.4,6.4,0,0,1,2.7,1.9l-1.5,1.4a6,6,0,0,0-2.1-1.4,6,6,0,0,0-2.4-.5,7,7,0,0,0-2.5.5,8.2,8.2,0,0,0-2,1.2,6.9,6.9,0,0,0-1.3,2,6.1,6.1,0,0,0-.4,2.4,6.9,6.9,0,0,0,.4,2.5,6.4,6.4,0,0,0,1.3,1.9,6.3,6.3,0,0,0,2,1.3,6.9,6.9,0,0,0,2.5.4,6.1,6.1,0,0,0,2.4-.4,5.1,5.1,0,0,0,2.1-1.5l1.5,1.5a7.1,7.1,0,0,1-2.7,1.8A7.7,7.7,0,0,1,395.7,445.9Z" fill="#de0009"/><path d="M406,445.7V429.8h2.2v15.9Z" fill="#de0009"/><path d="M421.2,445.9a7.4,7.4,0,0,1-3.4-.7,6.2,6.2,0,0,1-2.7-1.7,7.2,7.2,0,0,1-1.8-2.5,8.8,8.8,0,0,1-.6-3.3,8.7,8.7,0,0,1,.6-3.2,7.6,7.6,0,0,1,1.8-2.6,7.3,7.3,0,0,1,2.7-1.7,9,9,0,0,1,3.4-.6,8.8,8.8,0,0,1,3.3.6,8.3,8.3,0,0,1,2.7,1.7,8.1,8.1,0,0,1,1.8,2.6,8.7,8.7,0,0,1,.6,3.2,8.8,8.8,0,0,1-.6,3.3,9.3,9.3,0,0,1-1.8,2.6,8.3,8.3,0,0,1-2.7,1.7A8.8,8.8,0,0,1,421.2,445.9Zm-.1-2.1a6.9,6.9,0,0,0,2.5-.4,6.3,6.3,0,0,0,2-1.3,7.6,7.6,0,0,0,1.2-1.9,5.3,5.3,0,0,0,.5-2.5,4.7,4.7,0,0,0-.5-2.4,6.2,6.2,0,0,0-1.2-1.9,6.3,6.3,0,0,0-2-1.3,7,7,0,0,0-2.5-.5,6.4,6.4,0,0,0-2.4.5,5.3,5.3,0,0,0-2,1.3,6.4,6.4,0,0,0-1.3,1.9,6.1,6.1,0,0,0-.4,2.4,6.9,6.9,0,0,0,.4,2.5,8,8,0,0,0,1.3,1.9,5.3,5.3,0,0,0,2,1.3A6.4,6.4,0,0,0,421.1,443.8Zm-1.6-15.3,3-3h2.8l-3.8,3Z" fill="#de0009"/><path d="M434,445.7V429.8h1.9l10.5,13h-1v-13h2.3v15.9h-1.9l-10.5-13.1h1v13.1Z" fill="#de0009"/></g></svg>