<svg xmlns="http://www.w3.org/2000/svg" viewBox="0 0 512 200"><path d="M294,150.7H264.2V200h10.6V187.4H294c7.8,0,10.5-3.6,10.5-8.8V159.5c0-5.2-2.7-8.8-10.5-8.8m0,22.2c.1,4.6-.7,5.7-4.4,5.7H274.8V159.5h14.8c3.7,0,4.5,1.1,4.4,5.7v7.7Zm-37.1-22.2v36.7H227c-7.7,0-10.4-3.6-10.5-8.8V150.7H227v22.2c0,4.6.8,5.7,4.5,5.7h14.8V150.7Zm-58.2,0H179.4c-7.8,0-10.4,3.6-10.5,8.8v19.1c.1,5.2,2.8,8.8,10.5,8.8h19.3c7.9,0,10.5-3.6,10.5-8.8V159.5c0-5.2-2.8-8.8-10.5-8.8m0,22.2c.1,4.6-.7,5.7-4.4,5.7H183.9c-3.8,0-4.5-1.1-4.5-5.7v-7.6c0-4.7.7-5.8,4.5-5.8h10.4c3.7,0,4.5,1.1,4.4,5.8Zm-54.9-22.2h17.8v8.8H148.3c-3.8,0-4.5,1.1-4.5,5.8v22.1H133.3V159.5c0-5.2,2.7-8.8,10.5-8.8m-28.3,0H96.2c-7.8,0-10.5,3.6-10.5,8.8v19.1c0,5.2,2.7,8.8,10.5,8.8h19.3c0,2.4-.7,3.8-4.5,3.8H87.5V200h28c7.7.3,10.5-3.6,10.5-8.8V159.5c0-5.2-3-8.8-10.5-8.8m-9.7,27.9h-5.2c-3.7,0-4.5-1.1-4.4-5.7v-7.6c-.1-4.7.7-5.8,4.4-5.8H111c3.8,0,4.5,1.1,4.5,5.8v13.3Z" fill="#828281"/><path d="M325.3,152h-8.1v15.9h8.2c4.9,0,6.8-3.7,6.8-8.2s-2.2-7.7-6.9-7.7m0,13.9h-5.7V154.1h5.3c4.1,0,5,2.9,5,5.7s-.7,6.1-4.6,6.1" fill="#525051"/><path d="M340.9,155.8c-4.6,0-6.8,2.9-6.8,6.3s2.2,6.2,6.8,6.2a6.4,6.4,0,0,0,6-3.9h-2.4a4,4,0,0,1-3.8,2,4.2,4.2,0,0,1-4.3-3.7h10.8v-.2c0-4.9-3.3-6.7-6.3-6.7m-4.4,5.2a4,4,0,0,1,4.2-3.3,3.9,3.9,0,0,1,4.1,3.3Z" fill="#525051"/><path d="M356.5,161.2l-3.1-.4c-1.6-.2-2-.7-2-1.4s1.7-1.8,3.1-1.8,3.4,1,3.5,2.2h2.2c-.2-2.3-1.8-4-5.7-4s-5.3,1.4-5.3,3.8a3.3,3.3,0,0,0,3.2,3.1l3.6.5c1.8.2,2.2.7,2.2,1.5s-.7,1.9-3.5,1.9-3.7-1.3-3.7-2.4h-2.2c.2,3.4,3.3,4.1,5.9,4.1s5.9-1.3,5.9-4-1.1-2.7-4.1-3.1" fill="#525051"/><rect x="362.7" y="151.9" width="2.2" height="2.45" fill="#525051"/><rect x="362.7" y="156.2" width="2.2" height="11.66" fill="#525051"/><path d="M378,158h0c-.9-1.4-2.6-2-4.6-2s-6.3,1.7-6.3,6,3.3,6,6.4,6a5.1,5.1,0,0,0,4.5-2.1h0v1.7c0,1.9-1.1,3.5-4.3,3.5s-3.5-.4-3.9-1.9h-2.2c.5,3.2,3.4,3.6,5.9,3.6,4.8,0,6.8-1.7,6.8-5.9V156.2H378V158Zm-4.3,8.1a3.9,3.9,0,0,1-4.3-4.1,4.3,4.3,0,0,1,8.6,0,3.9,3.9,0,0,1-4.3,4.1" fill="#525051"/><path d="M389.7,155.8a5.4,5.4,0,0,0-4.6,2.2h0v-1.8h-2.3v11.7h2.3v-6.7a3.5,3.5,0,0,1,3.8-3.5c2.4,0,3.4,1,3.4,2.7v7.5h2.3V160c0-3-2.1-4.2-4.9-4.2" fill="#525051"/><path d="M419.6,160.6h-2.1a6.1,6.1,0,0,1-.7,2.5l-4.3-3.9c2.4-1,3.1-2.5,3.1-3.7s-1.5-3.5-4-3.5-4.1,1.5-4.1,3.6a4.1,4.1,0,0,0,1.7,3.2c-2.9,1.1-4.1,2.8-4.1,4.8s1.5,4.7,6.2,4.7c2.3,0,4.5-.7,5.7-2.2l1.9,1.8H422l-3.7-3.4a8.2,8.2,0,0,0,1.3-3.9m-8-6.7a1.8,1.8,0,0,1,1.9,1.7c0,.8-.6,1.7-2.3,2.4-1.1-1-1.6-1.7-1.6-2.5s.6-1.6,2-1.6m-.1,12.5c-3.2,0-4.1-1.6-4.1-2.9s.6-2.4,3.1-3.4l5,4.7a4.6,4.6,0,0,1-4,1.6" fill="#525051"/><path d="M442.1,159.4h0a3.4,3.4,0,0,0,2.3-3.4c0-2.5-1.5-4-4.9-4h-8.8v15.9h9.4c3.4,0,5-2.3,5-4.6a3.6,3.6,0,0,0-3-3.9m-9.1-5.3h6.3c2,0,2.7.8,2.7,2.3a2.2,2.2,0,0,1-2.5,2.2H433v-4.5Zm6.4,11.8H433v-5.3h6.6c2.4,0,3.1,1.3,3.1,2.6s-.7,2.7-3.3,2.7" fill="#525051"/><path d="M457.1,163c0,2.3-1.8,3.4-3.8,3.4s-3.4-.9-3.4-2.7v-7.5h-2.3v8c0,2.9,2.1,4.1,4.9,4.1a5.1,5.1,0,0,0,4.6-2.2h0v1.8h2.3V156.2h-2.3V163Z" fill="#525051"/><rect x="462.1" y="156.2" width="2.2" height="11.66" fill="#525051"/><rect x="462.1" y="151.9" width="2.2" height="2.45" fill="#525051"/><rect x="467" y="151.9" width="2.2" height="16.02" fill="#525051"/><path d="M482.3,157.9h-.1a5.3,5.3,0,0,0-4.4-1.9c-3.5,0-6.3,2.2-6.3,6.1s2.8,6.2,6.3,6.2a5.5,5.5,0,0,0,4.4-1.9h.1v1.5h2.2v-16h-2.2Zm-4.2,8.5a4.3,4.3,0,1,1,4.3-4.3,4,4,0,0,1-4.3,4.3" fill="#525051"/><path d="M484.5,84.6c-11.9,0-16.1,5.6-16.2,13.6v43.1h16.2V106.2h.1c0-6.4,1.3-8,6.8-8H512V84.6Z" fill="#525051"/><path d="M438.5,141.3h16.2V84.6H438.5v43.1h-23c-5.6,0-6.8-1.6-6.9-8h0V84.6H392.4v43.1c0,8,4.3,13.6,16.2,13.6Z" fill="#525051"/><path d="M289,84.5H247.3V98.1h34.8c5.5,0,6.8,1.6,6.8,8.1H259.1c-12,0-16.2,5.6-16.2,13.6v7.9c0,8,4.2,13.6,16.2,13.6h46.1V98.1c-.1-8-4.3-13.6-16.2-13.6m-.1,43.2h-25c-2.9.1-4.2-1.2-4.6-2.9s-.1-.4-.1-.6v-1.1c0-.2.1-.4.1-.6s1.7-3,4.6-2.9h25v7.9Z" fill="#525051"/><path d="M379.7,127.7v-8c-.1-8-4.6-13.6-16.2-13.6H338.3c-2.9.1-4.2-1.1-4.7-2.8v-.7a1.7,1.7,0,0,1,0-1V101c.5-1.8,1.8-3,4.7-2.9h41.4V84.5H333.4c-11.8,0-16.1,5.6-16.2,13.6v8c.1,8,4.4,13.6,16.2,13.6h25.2c2.9-.2,4.2,1.1,4.7,2.8v.6a2.1,2.1,0,0,1,0,1.1v.6c-.5,1.8-1.8,3-4.7,2.9H317.2v13.6h46.3c12.1-.1,16.1-5.6,16.2-13.6" fill="#525051"/><path d="M184.3,84.5H142.6V98.1h34.8c5.5,0,6.8,1.6,6.9,8.1H154.4c-11.9,0-16.2,5.6-16.2,13.6v7.9c0,8,4.3,13.6,16.2,13.6h46.1V98.1c-.1-8-4.3-13.6-16.2-13.6m0,43.2H159.2c-2.9.1-4.2-1.2-4.6-2.9s-.1-.4-.1-.6v-1.1c0-.2.1-.4.1-.6s1.7-3,4.6-2.9h25.1v7.9Z" fill="#525051"/><path d="M58,98.1H78.8c5.5,0,6.8,1.6,6.9,8.1v35.1h16.9V106.2c.1-6.5,1.4-8.1,6.9-8.1h20.7V84.5H58V98.1Z" fill="#525051"/><rect x="215.2" y="68.7" width="16.2" height="72.66" fill="#525051"/><path d="M46.9,131.8q5.4.9,11.1,1.5v-4.8c-4.1-.4-8.2-1-12.1-1.7a232.1,232.1,0,0,1,0-74.4,232.1,232.1,0,0,1,74.4,0c.9,5.2,1.6,10.7,2.2,16.3h4.7c-.5-5.3-1.1-10.4-1.9-15.4A148.3,148.3,0,0,1,157,63.1l1.8,5.6h4.8a83.1,83.1,0,1,0-93.8,103V167a85.5,85.5,0,0,1-13.2-3.5,143,143,0,0,1-9.7-31.7M154.4,56.7a153.7,153.7,0,0,0-29.9-8.4,158.9,158.9,0,0,0-8.4-29.9,79.6,79.6,0,0,1,38.3,38.3M83.1,11.1a77.3,77.3,0,0,1,26.5,4.7c4.1,8.8,7.4,19.6,9.8,31.6a245.4,245.4,0,0,0-72.6,0,141.8,141.8,0,0,1,9.9-31.6,77.2,77.2,0,0,1,26.4-4.7M50.2,18.4a151.7,151.7,0,0,0-8.4,29.9,153.7,153.7,0,0,0-29.9,8.4A79.2,79.2,0,0,1,50.2,18.4M4.7,89.6A77.7,77.7,0,0,1,9.3,63.1a147.3,147.3,0,0,1,31.6-9.8,245.4,245.4,0,0,0,0,72.6c-12-2.4-22.8-5.7-31.6-9.8A77.7,77.7,0,0,1,4.7,89.6m7.2,33A161,161,0,0,0,41.8,131a161,161,0,0,0,8.4,29.9,79.6,79.6,0,0,1-38.3-38.3" fill="#525051"/><path d="M121.9,0a298.5,298.5,0,0,1,10.5,41.7A300,300,0,0,1,174,52.4a131.8,131.8,0,0,0-22.6-30.1A134.8,134.8,0,0,0,121.9,0" fill="#c10a19"/></svg>