<svg xmlns="http://www.w3.org/2000/svg" viewBox="0 0 512 245"><path d="M352.4,226.4a6.1,6.1,0,0,0,6.1,6.1,6.1,6.1,0,0,0,6.1-6.1,6.1,6.1,0,0,0-6.1-6.1,6.2,6.2,0,0,0-6.1,6.1Z" fill="#fff" fill-rule="evenodd"/><path d="M358.5,231.6a5.2,5.2,0,0,1,0-10.3,5.2,5.2,0,0,1,0,10.3Z" fill="#9d896a" fill-rule="evenodd"/><path d="M356.1,230h1.1v-3h1.2l1.9,3h1.1l-2-3a1.9,1.9,0,0,0,1.9-2c0-1.4-.9-2.1-2.4-2.1h-2.8V230Z" fill="#fff" fill-rule="evenodd"/><path d="M357.2,226.1v-2.2h1.5c.7,0,1.5.1,1.5,1s-.9,1.2-1.8,1.2Z" fill="#9d896a" fill-rule="evenodd"/><path d="M455.3,1.7,433.8,65l-.6,1.9h5.7a71.9,71.9,0,0,1,0,143.8H381.5l-.4,1-11.5,31.6H63.6l11.1-30.6.7-2h-2a71.9,71.9,0,0,1-.3-143.8h54.6l.3-1L149.8,1.7H455.3m2-1.5Zm0,0Zm0,0H148.7L126.6,65.4H73.1a73.4,73.4,0,0,0,.3,146.8L61.5,244.8H370.6l11.9-32.6h56.4c40.3,0,73.1-32.9,73.1-73.4a73.3,73.3,0,0,0-73.1-73.4h-3.7L457.3.2Z"/><path d="M438.8,204a65.2,65.2,0,0,0,.1-130.4H196.2L219.4,8.4h-65L131.2,73.6H73.1a65.2,65.2,0,0,0,0,130.4H85L73.1,236.6h65.1L150,204Z" fill="#553621" fill-rule="evenodd"/><path d="M73.1,195.9a57.1,57.1,0,0,1,0-114.2H438.9a57.1,57.1,0,0,1-.1,114.2Z" fill="#fff" fill-rule="evenodd"/><path d="M204.9,73.6,228.1,8.4H447L423.8,73.6ZM377.3,204l-11.6,32.6H146.8L158.4,204Z" fill="#9d896a" fill-rule="evenodd"/><path d="M252.5,144.9a55.3,55.3,0,0,1-.1-12.2c2.2-20.5,19.3-36.7,40.4-36.7s38.1,16.2,40.3,36.7a62.2,62.2,0,0,1,0,12.2c-2.2,20.5-19.3,36.7-40.3,36.7s-38.1-16.2-40.3-36.7ZM179,108.2A10.2,10.2,0,0,1,189.1,98h30.5a28.6,28.6,0,0,1,0,57.1H203.4v12.2a12.3,12.3,0,0,1-12.2,12.3h0A12.2,12.2,0,0,1,179,167.3V108.2Z" fill="#7e191c" fill-rule="evenodd"/><path d="M215.6,134.7a8.1,8.1,0,0,0,8.1-8.1h0a8.2,8.2,0,0,0-8.1-8.2H203.4v16.3Z" fill="#fff" fill-rule="evenodd"/><path d="M164.8,159.2a10.2,10.2,0,0,1,0,20.4H130.2c-6.7,0-12.2-5.9-12.2-13.1V110.3a12.2,12.2,0,1,1,24.4,0v48.9Zm233.9-14.3a62.2,62.2,0,0,1,0-12.2,40.5,40.5,0,0,1,80.6,0,46.7,46.7,0,0,1,0,12.2,40.5,40.5,0,0,1-80.6,0Z" fill="#7e191c" fill-rule="evenodd"/><path d="M343.5,179.6a12.1,12.1,0,0,1-12.1-12.2h0a12.6,12.6,0,0,1,2.4-7.4l31-41.6H343.6a10.2,10.2,0,0,1,0-20.4h42.7a12.2,12.2,0,0,1,9.6,19.6L365,159.2h27.3a10.2,10.2,0,0,1,10.2,10.2h0a10.2,10.2,0,0,1-10.2,10.2H343.5ZM98.8,172A40,40,0,0,1,73,181.4a40.6,40.6,0,0,1-40.3-36.7,55.2,55.2,0,0,1-.1-12.2C34.8,112,51.9,95.8,73,95.8s38.1,16.2,40.3,36.7v.9a12.2,12.2,0,0,1-11,13.3H57.9a36.6,36.6,0,0,0,1.8,4.6A14.7,14.7,0,0,0,73,159.8a14.5,14.5,0,0,0,10.5-4.4,11.3,11.3,0,0,1,19.5,7.8h0a11.4,11.4,0,0,1-4.2,8.8Z" fill="#7e191c" fill-rule="evenodd"/><path d="M86.5,126.4a8.3,8.3,0,0,0-.7-1.3,14.6,14.6,0,0,0-25.7,0l-.7,1.3ZM306,151.7a14.7,14.7,0,0,1-26.5-.1,28.6,28.6,0,0,1-3-12.8,27.9,27.9,0,0,1,3.4-13.5,14.6,14.6,0,0,1,12.9-7.7,14.5,14.5,0,0,1,12.8,7.7,27.6,27.6,0,0,1,3.4,13.5,28.8,28.8,0,0,1-3,12.9Zm146.2,0a14.6,14.6,0,0,1-26.4-.1,28.6,28.6,0,0,1-3-12.8,27.9,27.9,0,0,1,3.4-13.5,14.3,14.3,0,0,1,12.8-7.7,14.8,14.8,0,0,1,12.9,7.7,28.4,28.4,0,0,1,.3,26.4Z" fill="#fff" fill-rule="evenodd"/></svg>